<?xml version="1.0" encoding="utf-8"?>
<!-- Generator: Adobe Illustrator 15.0.0, SVG Export Plug-In . SVG Version: 6.00 Build 0)  -->
<!DOCTYPE svg PUBLIC "-//W3C//DTD SVG 1.1//EN" "http://www.w3.org/Graphics/SVG/1.1/DTD/svg11.dtd">
<svg version="1.1" id="Capa_1" xmlns="http://www.w3.org/2000/svg" xmlns:xlink="http://www.w3.org/1999/xlink" x="0px" y="0px"
	 width="21.087px" height="60.019px" viewBox="5.002 5.001 21.087 60.019" enable-background="new 5.002 5.001 21.087 60.019"
	 xml:space="preserve">
<g>
	<path fill="#FFFFFF" d="M15.684,14.092c2.518,0,4.553-2.034,4.553-4.548c0-2.511-2.035-4.543-4.553-4.543
		c-2.51,0-4.549,2.032-4.549,4.543C11.135,12.057,13.175,14.092,15.684,14.092 M26.074,19.935c0-2.289-1.854-4.146-4.146-4.146
		H9.149c-2.29,0-4.147,1.857-4.147,4.146l0.014,16.747c0,0.992,0.809,1.813,1.809,1.813c1.002,0,1.806-0.82,1.806-1.813V21.375
		h0.776v40.926c0,1.498,1.211,2.717,2.709,2.717c1.496,0,2.711-1.219,2.711-2.717V39.895h1.48v22.406
		c0,1.496,1.219,2.719,2.719,2.719c1.496,0,2.715-1.223,2.715-2.719V21.375h0.724v15.241c0,1.006,0.817,1.814,1.809,1.814
		c1.011,0,1.816-0.811,1.816-1.814L26.074,19.935z"/>
</g>
</svg>
