<?xml version="1.0" encoding="utf-8"?>
<!-- Generator: Adobe Illustrator 15.0.0, SVG Export Plug-In . SVG Version: 6.00 Build 0)  -->
<!DOCTYPE svg PUBLIC "-//W3C//DTD SVG 1.1//EN" "http://www.w3.org/Graphics/SVG/1.1/DTD/svg11.dtd">
<svg version="1.1" id="Capa_1" xmlns="http://www.w3.org/2000/svg" xmlns:xlink="http://www.w3.org/1999/xlink" x="0px" y="0px"
	 width="57.114px" height="28.037px" viewBox="4.353 24.414 57.114 28.037" enable-background="new 4.353 24.414 57.114 28.037"
	 xml:space="preserve">
<g>
	<path fill="#FFFFFF" d="M32.792,37.953c-10.94,0-16.868,2.231-16.868,2.231v12.265c0,0,8.214-2.227,16.96-2.232v0.002
		c5.638,0.007,11.092,0.935,14.246,1.589c1.727,0.362,2.768,0.644,2.768,0.644v-0.012V40.185v-0.012c0,0-0.641-0.221-1.861-0.532
		C45.446,38.98,40.221,37.953,32.792,37.953z"/>
	<path fill="#FFFFFF" d="M55.616,46.617c-0.047-0.336-0.199-0.635-0.418-0.816v-0.693c0.241-0.184,0.398-0.488,0.398-0.843
		c0-0.427-0.234-0.786-0.561-0.935v-3.52l6.432-2.828l-6.454-2.84c-0.041-0.141-0.155-0.247-0.296-0.247
		c-0.057,0-0.104,0.021-0.149,0.051l-21.659-9.532L4.353,36.982l9.78,4.305v-1.629c0,0,6.552-2.469,18.644-2.469
		c8.214,0,13.99,1.139,16.853,1.869c1.351,0.34,2.061,0.586,2.061,0.586v0.014v1.629l2.713-1.199v3.242
		c-0.328,0.142-0.566,0.508-0.566,0.935c0,0.354,0.16,0.659,0.399,0.843V45.8c-0.216,0.183-0.368,0.482-0.413,0.816
		c-0.215,2.301-0.301,3.154-0.674,3.533c-0.128,0.533,0.566,1.145,1.561,1.15c0.002,0,0.01,0,0.012-0.002
		c0.006,0.002,0.008,0.002,0.013,0.002c0.992-0.006,1.685-0.62,1.56-1.152C55.915,49.766,55.829,48.917,55.616,46.617z"/>
</g>
</svg>
