<?xml version="1.0" encoding="utf-8"?>
<!-- Generator: Adobe Illustrator 15.0.0, SVG Export Plug-In . SVG Version: 6.00 Build 0)  -->
<!DOCTYPE svg PUBLIC "-//W3C//DTD SVG 1.1//EN" "http://www.w3.org/Graphics/SVG/1.1/DTD/svg11.dtd">
<svg version="1.1" id="Capa_1" xmlns="http://www.w3.org/2000/svg" xmlns:xlink="http://www.w3.org/1999/xlink" x="0px" y="0px"
	 width="64.771px" height="49.832px" viewBox="5.51 5.915 64.771 49.832" enable-background="new 5.51 5.915 64.771 49.832"
	 xml:space="preserve">
<g>
	<g>
		<g>
			<g>
				<g>
					<g>
						<path fill="#FFFFFF" d="M33.425,20.099l0.027,0.087l7.006,24.212l0.113,0.396h0.008l0.063,0.244l0.166,0.561l0.037,0.125
							l0.11-0.279l0.039-0.104l0.079-0.193l0.095-0.234l0.056-0.133c0.004-0.01,0.047-0.111,0.131-0.285
							c0.035-0.083,0.088-0.181,0.146-0.293c0.062-0.117,0.131-0.251,0.215-0.396c0-0.006,0.013-0.006,0.013-0.006
							c1.502-2.545,6.61-9.242,19.129-9.668l0.488-0.021l-8.55-22.365l-0.51-1.336l-0.248-0.666l-1.088-2.83h-0.236
							c-0.133,0-11.506,0.213-16.104,9.884c-0.418,0.876-0.778,1.835-1.071,2.882c-0.029,0.107-0.06,0.214-0.086,0.32L33.425,20.099
							z M41.048,43.587c-0.025,0.036-0.043,0.068-0.063,0.104l-1.357-4.68L34.15,20.085c0.353-1.32,0.822-2.495,1.377-3.548
							c4.199-7.991,13.354-8.831,14.947-8.913l0.86,2.253l0.252,0.656l0.533,1.396l8.228,21.522
							C47.644,34.052,42.502,41.046,41.048,43.587z"/>
					</g>
				</g>
				<g>
					<path fill="#FFFFFF" d="M40.959,45.444l0.152-0.16c0.004-0.006,0.004-0.006,0.014-0.006l0.037-0.041
						c0,0,0.004-0.009,0.014-0.016c0.016-0.012,0.039-0.035,0.068-0.063c0.232-0.231,1.004-0.948,2.303-1.864
						c3.389-2.404,10.383-6.223,20.977-6.58l0.492-0.018l-9.371-24.521l-0.254-0.674l-0.125-0.331l-0.643-1.682h-0.236
						c-0.037,0-0.951,0.02-2.346,0.255l0.248,0.666c0.865-0.144,1.523-0.19,1.854-0.212l0.416,1.096h0.004l0.121,0.322l0.262,0.67
						l9.068,23.744c-12.229,0.535-19.672,5.615-22.283,7.769c0,0-0.012,0-0.012,0.008c-0.078,0.146-0.154,0.276-0.215,0.396
						c-0.018,0.036-0.035,0.063-0.047,0.099c-0.041,0.068-0.07,0.135-0.102,0.194c-0.084,0.172-0.127,0.275-0.131,0.285
						l-0.056,0.133l-0.095,0.234l-0.079,0.194L40.959,45.444z"/>
				</g>
				<g>
					<g>
						<path fill="#FFFFFF" d="M11.737,18.183l0.623,2.972l0.156,0.696l0.182,0.871l5.066,23.947l0.422-0.244
							c10.744-6.433,18.666-3.588,21.315-2.265c0,0,0.006-0.006,0.013,0c0.143,0.077,0.266,0.146,0.379,0.208
							c0.043,0.021,0.071,0.043,0.106,0.061c0.153,0.091,0.269,0.16,0.347,0.207c0.028,0.02,0.053,0.039,0.069,0.049
							c0.022,0.019,0.035,0.021,0.041,0.029l0.114,0.082h0.007l0.37,0.27l0.093,0.059l0.035,0.024l0.098,0.075l0.115,0.08
							l-0.048-0.146l-0.071-0.245l-0.278-0.938L33.64,19.843l-0.022-0.096l-0.078-0.066c-0.808-0.735-1.625-1.365-2.457-1.898
							c-9.188-5.904-19.039,0.202-19.142,0.271L11.737,18.183z M12.523,18.523c1.408-0.809,9.703-5.136,17.638-0.486
							c0.959,0.558,1.907,1.251,2.838,2.093l5.673,18.871l1.396,4.668c-0.035-0.018-0.065-0.035-0.11-0.056
							c-2.604-1.347-10.71-4.433-21.708,1.962l-4.871-23.021L13.17,21.57l-0.144-0.688L12.523,18.523z"/>
					</g>
				</g>
				<g>
					<path fill="#FFFFFF" d="M10.058,22.343l0.182,0.871l0.265,1.231l0.147,0.7l5.435,25.686l0.422-0.249
						c9.098-5.452,17.037-6.038,21.197-5.856c1.586,0.063,2.616,0.25,2.938,0.314c0.072,0.014,0.105,0.018,0.111,0.018l0.055,0.021
						c0.006-0.006,0.006-0.006,0.017,0l0.217,0.046l-0.092-0.059l-0.371-0.27h-0.007l-0.114-0.084
						c-0.006-0.007-0.019-0.011-0.041-0.029c-0.019-0.01-0.041-0.027-0.069-0.047c-0.078-0.049-0.191-0.116-0.347-0.207
						c-0.035-0.018-0.063-0.037-0.106-0.061c-0.105-0.059-0.234-0.131-0.379-0.208c-0.007-0.006-0.013,0-0.013,0
						c-3.369-0.392-12.371-0.612-22.937,5.563l-5.264-24.862l-0.146-0.703l-0.227-1.053l-0.088-0.431
						c0.285-0.16,0.865-0.477,1.674-0.826l-0.157-0.694c-1.299,0.558-2.071,1.04-2.102,1.058L10.058,22.343z"/>
				</g>
				<g>
					<path fill="#FFFFFF" d="M6.872,27.468c0.196,1.127,5.444,26.063,5.444,26.063c1.484,4.729,6.039,0.421,6.039,0.421
						c8.156-5.221,20.146-5.743,20.146-5.743c0.844,1.285,2.148,1.396,3.705,1.241c1.561-0.142,1.607-2.465,1.607-2.465
						c4.158-3.578,21.082-4.931,22.967-5.132c1.883-0.194,2.729-0.524,3.439-1.833c0.94-1.733-9.429-28.112-11.929-29.496
						c-1.998-1.109-3.513,0-3.513,0l0.746,1.347l1.875-0.088l10.384,26.664l-3.813,0.309c-10.597,0.354-15.275,2.596-19.052,4.332
						c-1.513,0.696-3.694,1.694-3.694,1.694s0.075-0.093-0.646,0.017c-4.292,0.647-15.348,1.875-24.446,7.325l-1.242,0.615
						l-6.04-27.072l1.652-1.221l-0.265-1.231C6.478,25.07,6.626,26.062,6.872,27.468z"/>
				</g>
			</g>
		</g>
	</g>
</g>
</svg>
