<?xml version="1.0" encoding="utf-8"?>
<!-- Generator: Adobe Illustrator 15.0.0, SVG Export Plug-In . SVG Version: 6.00 Build 0)  -->
<!DOCTYPE svg PUBLIC "-//W3C//DTD SVG 1.1//EN" "http://www.w3.org/Graphics/SVG/1.1/DTD/svg11.dtd">
<svg version="1.1" id="Capa_1" xmlns="http://www.w3.org/2000/svg" xmlns:xlink="http://www.w3.org/1999/xlink" x="0px" y="0px"
	 width="36.563px" height="52.338px" viewBox="0 6.838 36.563 52.338" enable-background="new 0 6.838 36.563 52.338"
	 xml:space="preserve">
<g>
	<path fill="none" stroke="#FDFBFC" stroke-width="6.1031" stroke-miterlimit="10" d="M7.458,29.071v-7.337
		c0-6.245,5.063-11.309,11.308-11.309l0,0c6.241,0,11.308,5.063,11.308,11.309v7.337"/>
	<g>
		<path fill="#FFFFFF" d="M30.253,28.274H6.754c-3.603,0-6.53,2.929-6.53,6.532v19.148c0,3.6,2.929,6.528,6.53,6.528h23.499
			c3.604,0,6.533-2.93,6.533-6.528V34.807C36.787,31.203,33.857,28.274,30.253,28.274z M6.985,57.125
			c-2.135-0.412-3.753-2.297-3.753-4.554V36.518c0-2.256,1.618-4.143,3.755-4.555c-1.071,1.094-1.695,2.574-1.695,4.164v16.834
			C5.29,54.553,5.915,56.032,6.985,57.125z M22.79,52.33h-7.233l1.391-7.601c-1.494-0.801-2.522-2.356-2.522-4.17
			c0-2.621,2.128-4.746,4.747-4.746c2.625,0,4.75,2.125,4.75,4.746c0,1.813-1.027,3.373-2.521,4.172L22.79,52.33z"/>
	</g>
</g>
</svg>
