<?xml version="1.0" encoding="utf-8"?>
<!-- Generator: Adobe Illustrator 15.0.0, SVG Export Plug-In . SVG Version: 6.00 Build 0)  -->
<!DOCTYPE svg PUBLIC "-//W3C//DTD SVG 1.1//EN" "http://www.w3.org/Graphics/SVG/1.1/DTD/svg11.dtd">
<svg version="1.1" id="Capa_1" xmlns="http://www.w3.org/2000/svg" xmlns:xlink="http://www.w3.org/1999/xlink" x="0px" y="0px"
	 width="45.608px" height="30.48px" viewBox="16.81 8.091 45.608 30.48" enable-background="new 16.81 8.091 45.608 30.48"
	 xml:space="preserve">
<g>
	<path fill="#FFFFFF" d="M16.81,8.091v30.48h45.608V8.091H16.81z M59.377,35.69H19.853V10.97h39.524V35.69z"/>
	<g>
		<path fill="#FFFFFF" d="M24.798,29.788V18.471h-1.714v-2.306h4.168v13.623H24.798z"/>
		<path fill="#FFFFFF" d="M37.393,26.452v3.262H34.85v-3.262h-3.262v-2.545h3.262v-3.263h2.543v3.263h3.266v2.545H37.393z"/>
		<path fill="#FFFFFF" d="M53.77,24.959l-2.781,2.523h5.363v2.305h-8.811v-2.156l4.849-4.592c1.106-1.052,1.563-1.842,1.563-2.728
			c0-1.217-0.848-2.137-1.971-2.137c-1.271,0-2.121,1.067-2.121,2.69h-2.414c0-3.134,1.9-4.939,4.516-4.939
			c2.525,0,4.442,1.917,4.442,4.423C56.407,22.028,55.836,23.098,53.77,24.959z"/>
	</g>
</g>
</svg>
